<svg xmlns="http://www.w3.org/2000/svg" xmlns:xlink="http://www.w3.org/1999/xlink" width="1080" zoomAndPan="magnify" viewBox="0 0 810 749.999995" height="1000" preserveAspectRatio="xMidYMid meet" version="1.0"><defs><clipPath id="4e64ba9667"><path d="M 75 16 L 742.5 16 L 742.5 734.921875 L 75 734.921875 Z M 75 16 " clip-rule="nonzero"/></clipPath></defs><g clip-path="url(#4e64ba9667)"><path fill="#000000" d="M 731.609375 734.796875 L 511.933594 734.796875 C 505.886719 734.796875 500.984375 729.894531 500.984375 723.847656 L 500.984375 512.273438 C 500.988281 461.867188 459.519531 420.390625 409.128906 420.386719 C 358.730469 420.382812 317.257812 461.863281 317.257812 512.273438 L 317.257812 723.847656 C 317.257812 729.894531 312.355469 734.796875 306.3125 734.796875 L 85.949219 734.796875 C 79.902344 734.796875 75 729.894531 75 723.847656 L 75 348.777344 C 75 345.867188 76.15625 343.078125 78.214844 341.023438 L 400.757812 19.269531 C 405.027344 15.007812 411.9375 15.003906 416.210938 19.261719 C 523.917969 126.507812 631.628906 233.753906 739.335938 341.015625 C 741.398438 343.070312 742.558594 345.863281 742.558594 348.777344 L 742.558594 723.847656 C 742.558594 729.894531 737.65625 734.796875 731.609375 734.796875 Z M 522.878906 712.898438 L 720.664062 712.898438 L 720.664062 353.324219 C 616.605469 249.695312 512.554688 146.089844 408.492188 42.476562 L 96.894531 353.320312 L 96.894531 712.898438 L 295.363281 712.898438 L 295.363281 512.273438 C 295.359375 449.855469 346.710938 398.488281 409.121094 398.488281 C 471.53125 398.484375 522.882812 449.851562 522.878906 512.273438 Z M 522.878906 712.898438 " fill-opacity="1" fill-rule="nonzero"/></g></svg>