<svg xmlns="http://www.w3.org/2000/svg" viewBox="0 0 512 512" role="img" aria-label="HC Closet double hanger icon">
  <rect width="512" height="512" rx="42" fill="#ffffff" />

  <g fill="none" stroke-linecap="round" stroke-linejoin="round">
    <path
      d="M212 154
         C212 136 225 123 244 123
         C263 123 276 137 276 155
         C276 171 267 183 257 194
         C246 205 238 214 238 230"
      stroke="#111111"
      stroke-width="16"
    />
    <path
      d="M238 230
         L68 369
         C52 382 40 395 40 408
         C40 422 55 429 93 433
         C136 437 193 439 261 438
         C330 437 387 434 428 430
         C454 427 468 421 468 411
         C468 399 458 384 440 368
         L293 248"
      stroke="#111111"
      stroke-width="16"
    />
  </g>

  <g fill="none" stroke="#d7d7d7" stroke-linecap="round" stroke-linejoin="round">
    <path
      d="M320 192
         C320 174 333 161 351 161
         C370 161 383 175 383 193
         C383 209 374 220 364 231
         C353 242 345 251 345 267"
      stroke-width="16"
    />
    <path
      d="M345 267
         L176 404
         C160 417 147 431 147 444
         C147 458 162 465 201 469
         C246 473 304 474 372 472
         C426 470 465 466 486 460
         C499 456 503 448 498 438
         C491 425 479 412 461 397
         L395 342"
      stroke-width="16"
    />
  </g>
</svg>
